<svg width="1920" height="540" viewBox="0 0 1920 540" fill="none" xmlns="http://www.w3.org/2000/svg">
<path d="M0 0V232.814V367.547C0 389.851 18.2425 407.847 40.5449 407.543L111.667 406.574C116.952 406.502 122.171 405.383 127.021 403.282L316.456 321.226C321.475 319.052 326.886 317.93 332.355 317.93H631.476C640.619 317.93 649.487 321.063 656.601 326.806L748.163 400.72C752.847 404.501 758.324 407.177 764.186 408.546L1129.66 493.951C1132.64 494.648 1135.7 495 1138.76 495H1333.56H1572.73C1577.86 495 1582.95 494.011 1587.71 492.088L1781.45 413.823C1792.94 409.183 1805.93 410.128 1816.63 416.382L1859.81 441.634C1886.47 457.228 1920 437.995 1920 407.104V293.205V144.927V115.232V0H0Z" fill="#216E7A"/>
<path opacity="0.3" d="M0 0V274V411.93C0 434.435 18.5588 452.51 41.0559 451.916L111.796 450.048C116.997 449.91 122.122 448.759 126.883 446.659L316.351 363.082C321.437 360.838 326.936 359.679 332.495 359.679H631.275C640.541 359.679 649.519 362.896 656.677 368.78L748.135 443.966C752.836 447.831 758.357 450.572 764.277 451.981L1129.58 538.913C1132.62 539.635 1135.73 540 1138.84 540H1333.56H1572.59C1577.81 540 1582.98 538.978 1587.81 536.992L1780.42 457.756C1792.49 452.794 1806.21 454.025 1817.2 461.054L1857.94 487.121C1884.57 504.153 1919.5 485.033 1919.5 453.426V323.5V164V147V0H0Z" fill="#FA00FF"/>
</svg>
